<?xml version='1.0' encoding='utf8'?>
<svg xmlns="http://www.w3.org/2000/svg" height="190" viewBox="-42.4580283125 1.3342416874999998 103.033025625 50.524088625000005" width="389">
    <g display="inline">
        <path d="m8.2166663 16.933333h51.2999977v33.866664h-51.2999977z" fill="#80dfff" stop-color="#000000" />
        <path d="m8.2166663 16.933333h51.2999977v33.866664h-51.2999977z" fill="none" stop-color="#000000" stroke="#000000" stroke-linejoin="round" stroke-width="1.05833" />
    </g>
<g display="inline" opacity="1">
        <path clip-rule="nonzero" color-interpolation="sRGB" color-interpolation-filters="linearRGB" color-rendering="auto" d="m33.8671820 25.0676160 -2.972427 2.972946.747758.747757 1.695503-1.694987v5.928836c-1.289556.24932-2.271694 1.389118-2.271694 2.748672 0 1.540454 1.260406 2.800861 2.80086 2.800861 1.540455 0 2.800863-1.260407 2.800863-2.800861 0-1.359554-.982138-2.499352-2.271696-2.748672v-5.928836l1.695505 1.694987.747758-.747757zm0 8.96121c.968492 0 1.742014.773523 1.742014 1.742014 0 .968489-.773522 1.742527-1.742014 1.742527-.968491 0-1.742011-.774038-1.742011-1.742527 0-.968491.77352-1.742014 1.742011-1.742014z" display="inline" fill="#000000" fill-opacity="1" fill-rule="nonzero" image-rendering="auto" opacity="1" shape-rendering="auto" stop-color="#000000" stop-opacity="1" text-rendering="auto" visibility="visible" />
        <path d="m29.1275600 40.6399960 a1.3964449 1.3964449 0 0 1 -1.396445 1.396444 1.3964449 1.3964449 0 0 1 -1.396445-1.396444 1.3964449 1.3964449 0 0 1 1.396445-1.396445 1.3964449 1.3964449 0 0 1 1.396445 1.396445z" fill="none" stop-color="#000000" stroke="#000000" stroke-width="1.05833" />
        <path d="m42.1728490 38.5717010 h-8.305667-8.305667" fill="none" stop-color="#000000" stroke="#000000" stroke-width="1.05833" />
        <path d="m-38.6068050 40.6399960 a1.3964449 1.3964449 0 0 1 -1.396445 1.396444 1.3964449 1.3964449 0 0 1 -1.396445-1.396444 1.3964449 1.3964449 0 0 1 1.396445-1.396445 1.3964449 1.3964449 0 0 1 1.396445 1.396445z" fill="none" stop-color="#000000" stroke="#000000" stroke-width="1.05833" transform="scale(-1 1)" />
    </g>
<path d="m27.5180320 2.3925750 v13.482423h3.175782v-13.482423zm9.527343 0v13.482423h3.169923v-13.482423z" display="inline" fill="#000000" opacity="1" stroke-linejoin="round" stroke-width=".999999" />
</svg>