<?xml version='1.0' encoding='utf8'?>
<svg xmlns="http://www.w3.org/2000/svg" height="135" viewBox="7.1583329875 15.8749996875 53.416664325 35.983330625" width="201">
    <g display="inline">
        <path d="m8.2166663 16.933333h51.2999977v33.866664h-51.2999977z" fill="#80dfff" stop-color="#000000" />
        <path d="m8.2166663 16.933333h51.2999977v33.866664h-51.2999977z" fill="none" stop-color="#000000" stroke="#000000" stroke-linejoin="round" stroke-width="1.058333" />
    </g>
<g display="inline" opacity="1">
        <path clip-rule="nonzero" color-interpolation="sRGB" color-interpolation-filters="linearRGB" color-rendering="auto" d="m33.8671820 25.0676160 -2.972427 2.972946.747758.747757 1.695503-1.694987v5.928836c-1.289556.24932-2.271694 1.389118-2.271694 2.748672 0 1.540454 1.260406 2.800861 2.80086 2.800861 1.540455 0 2.800863-1.260407 2.800863-2.800861 0-1.359554-.982138-2.499352-2.271696-2.748672v-5.928836l1.695505 1.694987.747758-.747757zm0 8.96121c.968492 0 1.742014.773523 1.742014 1.742014 0 .968489-.773522 1.742527-1.742014 1.742527-.968491 0-1.742011-.774038-1.742011-1.742527 0-.968491.77352-1.742014 1.742011-1.742014z" display="inline" fill="#000000" fill-opacity="1" fill-rule="nonzero" image-rendering="auto" opacity="1" shape-rendering="auto" stop-color="#000000" stop-opacity="1" text-rendering="auto" visibility="visible" />
        <path d="m25.5607130 38.0431550 v1.058333h1.021126c-.469817.352325-.777213.911459-.777213 1.538925.000001 1.057217.868764 1.92598 1.925981 1.92598s1.925462-.868763 1.925463-1.92598c0-.627392-.307122-1.186593-.776696-1.538925h4.987809 4.987809c-.469575.352332-.776697.911533-.776697 1.538925.000001 1.057217.868247 1.92598 1.925464 1.92598s1.925981-.868763 1.925981-1.92598c0-.627466-.307397-1.1866-.777214-1.538925h1.019576v-1.058333h-8.304919zm2.169894 1.730127c.485253 0 .86713.381878.86713.867131s-.381877.867648-.86713.867647c-.485253.000001-.86713-.382394-.867131-.867647 0-.485253.381877-.867131.867131-.867131zm12.273152 0c.485254 0 .86713.381878.86713.867131-.000001.485253-.381877.867648-.86713.867647-.485253.000001-.867131-.382394-.867131-.867647s.381878-.867131.867131-.867131z" />
    </g>
</svg>