<?xml version='1.0' encoding='utf8'?>
<svg xmlns="http://www.w3.org/2000/svg" height="135" viewBox="7.1583329875 15.8749996875 53.416664325 35.983330625" width="201">
    <g display="inline">
        <path d="m8.2166663 16.933333h51.2999977v33.866664h-51.2999977z" fill="#80dfff" stop-color="#000000" />
        <path d="m8.2166663 16.933333h51.2999977v33.866664h-51.2999977z" fill="none" stop-color="#000000" stroke="#000000" stroke-linejoin="round" stroke-width="1.058333" />
    </g>
<path d="m46.2118320 39.9234450 v-11.495988h-24.690332v11.495988m12.345166-11.495988v11.495988" display="inline" fill="none" opacity="1" stop-color="#000000" stroke="#000000" stroke-width="1.05833" />
<path d="m59.5166630 34.4384110 c0 1.5792-1.280193 2.859394-2.859393 2.859394s-2.859393-1.280194-2.859393-2.859394v-1.143491c0-1.579199-1.280192-2.859393-2.859392-2.859393s-2.859393 1.280194-2.859393 2.859393v1.143491c0 1.5792-1.280193 2.859394-2.859393 2.859394s-2.859392-1.280194-2.859392-2.859394v-1.143491c0-1.579199-1.280193-2.859393-2.859393-2.859393s-2.859393 1.280194-2.859393 2.859393v1.143491c0 1.5792-1.280193 2.859394-2.859393 2.859394-1.579199 0-2.859392-1.280194-2.859392-2.859394v-1.143491c0-1.579199-1.280193-2.859393-2.859393-2.859393s-2.859393 1.280194-2.859393 2.859393v1.143491c0 1.5792-1.280193 2.859394-2.859392 2.859394-1.5792 0-2.859393-1.280194-2.859393-2.859394v-1.143491c0-1.579199-1.280193-2.859393-2.859393-2.859393s-2.859393 1.280194-2.859393 2.859393v1.14349c0 1.5792-1.280192 2.859394-2.859392 2.859394-1.5792006 0-2.6903206-1.280194-2.6903206-2.859394" display="inline" fill="none" opacity="1" stop-color="#000000" stroke="#000000" stroke-dasharray="none" stroke-miterlimit="4" stroke-width="1.05833" />
</svg>