<?xml version='1.0' encoding='utf8'?>
<svg xmlns="http://www.w3.org/2000/svg" height="135" viewBox="7.1583329875 15.8749996875 53.416664325 35.983330625" width="201">
    <g display="inline">
        <path d="m8.2166663 16.933333h51.2999977v33.866664h-51.2999977z" fill="#80dfff" stop-color="#000000" />
        <path d="m8.2166663 16.933333h51.2999977v33.866664h-51.2999977z" fill="none" stop-color="#000000" stroke="#000000" stroke-linejoin="round" stroke-width="1.05833" />
    </g>
<path d="m20.9785640 27.0934360 v6.77323 6.77323l12.888102-6.77323zm12.888102 6.77323 12.888103 6.77323v-6.77323-6.77323z" display="inline" fill="#000000" opacity="1" stop-color="#000000" stroke-width="1.00012" />
<path d="m33.8020400 48.7355041 q-1.46810960272 0-2.25009243784-.71639731025-.77693839553-.71639731025-.77693839553-2.04829044737v-4.44469067069h1.48829028991v4.32865411125q0 .84252372514.39855954136 1.28144268832.40360398095.43387452359 1.1805414002.43387452359.79711810644 0 1.22594819044-.45405423449.42882910772-.45909965036.42882910772-1.31171342621v-4.27820366244h1.48829028991v4.36901450934q0 1.35207362905-.83747850453 2.09874148194-.83243406495.74162243702-2.34594948163.74162243702z" display="inline" opacity="1" stroke-width=".99999400509" />
</svg>