<?xml version='1.0' encoding='utf8'?>
<svg xmlns="http://www.w3.org/2000/svg" height="135" viewBox="7.1583329875 15.8749996875 53.416664325 35.983330625" width="201">
    <g display="inline">
        <path d="m8.2166663 16.933333h51.2999977v33.866664h-51.2999977z" fill="#80dfff" stop-color="#000000" />
        <path d="m8.2166663 16.933333h51.2999977v33.866664h-51.2999977z" fill="none" stop-color="#000000" stroke="#000000" stroke-linejoin="round" stroke-width="1.058333" />
    </g>
<path d="m22.3619930 29.6494650 c-1.645891.511354-2.991517 2.493705-2.991517 4.217201s1.345626 3.705847 2.991517 4.217201c3.900506 1.211829 11.504673-4.217201 11.504673-4.217201s-7.604167-5.42903-11.504673-4.217201zm11.504673 4.217201s7.604167 5.42903 11.504673 4.217201c1.645891-.511354 2.991516-2.493705 2.991516-4.217201s-1.345625-3.705847-2.991516-4.217201c-3.900506-1.211829-11.504673 4.217201-11.504673 4.217201z" display="inline" fill="#000000" opacity="1" stop-color="#000000" stroke-width="1.00012" />
<path d="m35.6672782 25.9708588 -.63002605-1.81447634h-2.70659376l-.63002605 1.81447634h-1.48686237l2.59066834-7.10165778h1.75399334l2.58058816 7.10165778zm-1.98584322-6.00793198-.0302454.11088456q-.05040575.18144763-.12096502.41329731-.0705661.23184978-.8669165 2.55034686h2.04128564l-.70058532-2.04128554-.21672815-.68546867z" opacity="1" stroke-width="1" />
</svg>