<?xml version='1.0' encoding='utf8'?>
<svg xmlns="http://www.w3.org/2000/svg" height="135" viewBox="7.1583329875 15.8749996875 53.416664325 35.983330625" width="201">
    <g display="inline">
        <path d="m8.2166663 16.933333h51.2999977v33.866664h-51.2999977z" fill="#80dfff" stop-color="#000000" />
        <path d="m8.2166663 16.933333h51.2999977v33.866664h-51.2999977z" fill="none" stop-color="#000000" stroke="#000000" stroke-linejoin="round" stroke-width="1.058333" />
    </g>
<g display="inline" opacity="1">
        <path d="m27.8203950 31.6503190 c-.864997.268742-1.57219 1.310565-1.57219 2.216347s.707193 1.947605 1.57219 2.216346c2.049907.636876 6.046271-2.216346 6.046271-2.216346s-3.996364-2.853222-6.046271-2.216347zm6.046271 2.216347s3.996364 2.853222 6.046271 2.216346c.864997-.268741 1.572189-1.310564 1.572189-2.216346s-.707192-1.947605-1.572189-2.216347c-2.049907-.636875-6.046271 2.216347-6.046271 2.216347z" fill="#000000" opacity="1" stop-color="#000000" stroke-width="1.00012" />
        <path d="m37.4263310 27.0933340 h-3.559665-3.559665l3.559665 6.773331zm-3.559665 6.773331-3.559665 6.773332h3.559665 3.559665z" display="inline" fill="#000000" opacity="1" stop-color="#000000" stroke-width="1.00012" />
    </g>
</svg>