<?xml version='1.0' encoding='utf8'?>
<svg xmlns="http://www.w3.org/2000/svg" height="135" viewBox="7.1583329875 15.8749996875 53.416664325 35.983330625" width="201">
    <g display="inline">
        <path d="m8.2166663 16.933333h51.2999977v33.866664h-51.2999977z" fill="#80dfff" stop-color="#000000" />
        <path d="m8.2166663 16.933333h51.2999977v33.866664h-51.2999977z" fill="none" stop-color="#000000" stroke="#000000" stroke-linejoin="round" stroke-width="1.058333" />
    </g>
<path d="m46.2118320 39.9234450 v-11.495988h-24.690332v11.495988m12.345166-11.495988v11.495988" display="inline" fill="none" opacity="1" stop-color="#000000" stroke="#000000" stroke-width="1.05833" />
<path d="m28.9246932 25.4882491 q1.01732004 0 1.41357949-1.0211305l.97921909.36958842q-.31624562.77727779-.92968601 1.15829687-.60963067.37720861-1.46311257.37720861-1.29546397 0-2.00415932-.73155592-.70488488-.73536638-.70488488-2.05369173 0-1.32213537.68202358-2.03083035.68202431-.70869505 1.97748828-.70869505.94492639 0 1.53931594.38101885.59438955.37720861.83443106 1.11257499l-.99064901.27052337q-.12573571-.40388001-.49532413-.64011165-.36577796-.24004188-.86491256-.24004188-.76203815 0-1.1582976.47246334-.39244973.47246334-.39244973 1.38309837 0 .92587562.40388038 1.41357957.40769011.48770468 1.17353798.48770468zm7.88708962-.72393573q0 .73155592-.54866694 1.13162583-.54866694.40006992-1.52407556.40006992h-2.68618216v-5.36855569h2.4575713q.98302882 0 1.48597314.34291695.50675552.3391067.50675552 1.00588968 0 .4572226-.25528263.77346829-.2514729.31243545-.76965834.42293086.65154208.07620382.99064901.41150035.34291665.33148644.34291665.88015382zm-1.44025126-2.33564576q0-.36196786-.23242132-.51437542-.22861086-.15240756-.68202358-.15240756h-1.28022359v1.32975578h1.28784378q.47627403 0 .6896445-.16383814.2171802-.1676483.2171802-.49913467zm.31243589 2.24801099q0-.75441715-1.08209349-.75441715h-1.42501088v1.53931587h1.46692303q.54104675 0 .78870845-.19431963.2514729-.19812936.2514729-.59057909zm4.42743866-2.88050223v4.49983275h-1.12400564v-4.49983275h-1.73363557v-.86872295h4.59508726v.86872295z" display="inline" opacity="1" stroke-width=".999996" />
</svg>