<?xml version='1.0' encoding='utf8'?>
<svg xmlns="http://www.w3.org/2000/svg" height="135" viewBox="7.1583329875 15.8749996875 53.416664325 35.983330625" width="201">
    <g display="inline">
        <path d="m8.2166663 16.933333h51.2999977v33.866664h-51.2999977z" fill="#80dfff" stop-color="#000000" />
        <path d="m8.2166663 16.933333h51.2999977v33.866664h-51.2999977z" fill="none" stop-color="#000000" stroke="#000000" stroke-linejoin="round" stroke-width="1.05833" />
    </g>
<path d="m46.2118320 39.9234450 v-11.495988h-24.690332v11.495988m12.345166-11.495988v11.495988" display="inline" fill="none" opacity="1" stop-color="#000000" stroke="#000000" stroke-width="1.05833" />
<g display="inline" opacity="1" stroke-width="1.35626">
        <path d="m28.9246932 25.4882491 q1.01732003821 0 1.41357949285-1.02113050177l.97921908922.36958842169q-.31624561846.77727779237-.92968601224 1.15829686741-.60963066753.37720861149-1.46311256984.37720861149-1.29546397037 0-2.00415931723-.73155591626-.70488488331-.73536637982-.70488488331-2.05369173063 0-1.32213537198.68202357659-2.03083035019.68202431391-.70869505194 1.97748828428-.70869505194.94492639183 0 1.53931594245.38101885385.59438955062.37720861149.83443105915 1.1125749913l-.99064900526.2705233737q-.12573571228-.4038800131-.49532413397-.64011164792-.36577795813-.24004187719-.86491255566-.24004187719-.76203815009 0-1.15829760473.47246334338-.3924497284.47246334338-.3924497284 1.383098365 0 .92587562241.40388038176 1.41357956659.407690108.48770468149 1.17353798433.48770468149z" stroke-width=".99999599569" />
        <path d="m36.8117828 24.7643134 q0 .73155591626-.54866693719 1.13162583446-.54866693719.4000699182-1.52407556286.4000699182h-2.68618215651v-5.36855569276h2.45757130134q.98302881546 0 1.48597313923.34291694634.50675552465.33910670398.50675552465 1.00588967978 0 .45722259513-.25528262544.77346828732-.2514728992.31243544983-.76965833989.42293085625.65154208008.07620381501.99064900526.41150035036.34291665142.33148644045.34291665142.88015382004zm-1.44025126312-2.33564575769q0-.36196786323-.23242131873-.51437541952-.22861085517-.15240755629-.68202357659-.15240755629h-1.28022359077v1.32975578297h1.28784378057q.47627402814 0 .68964450371-.16383813591.21718020182-.16764830454.21718020182-.49913467126zm.31243589222 2.24801099439q0-.75441714924-1.08209349479-.75441714924h-1.42501088353v1.53931586872h1.4669230334q.5410467474 0 .78870844572-.19431963242.2514728992-.19812935866.2514728992-.59057908706z" stroke-width=".99999599569" />
        <path d="m40.1114061 21.7961764 v4.49983274727h-1.12400564466v-4.49983274727h-1.73363557488v-.86872294549h4.59508725797v.86872294549z" stroke-width=".99999599569" />
    </g>
</svg>