<?xml version='1.0' encoding='utf8'?>
<svg xmlns="http://www.w3.org/2000/svg" height="135" viewBox="7.1583329875 15.8749996875 53.416664325 35.983330625" width="201">
    <g display="inline">
        <path d="m8.2166663 16.933333h51.2999977v33.866664h-51.2999977z" fill="#80dfff" stop-color="#000000" />
        <path d="m8.2166663 16.933333h51.2999977v33.866664h-51.2999977z" fill="none" stop-color="#000000" stroke="#000000" stroke-linejoin="round" stroke-width="1.058333" />
    </g>
<path d="m46.2118320 39.9234450 v-11.495988h-24.690332v11.495988m12.345166-11.495988v11.495988" display="inline" fill="none" opacity="1" stop-color="#000000" stroke="#000000" stroke-width="1.05833" />
<path d="m25.4863075 25.0749034 q.79345933 0 1.10252269-.79643131l.7637419.2882607q-.24665595.60623825-.72510912.90341429-.4754812.29420407-1.14115547.29420407-1.01039785 0-1.56314518-.57057745-.54977536-.57354942-.54977536-1.60177801 0-1.03120022.53194524-1.58394727.53194467-.5527471 1.54234252-.5527471.73699587 0 1.20059033.29717587.46359446.29420407.65081497.86775349l-.77265725.21099486q-.09806764-.31500644-.38632834-.49925544-.28528872-.1872208-.67458903-.1872208-.59435208 0-.90341486.36849805-.30609081.36849805-.30609081 1.07874834 0 .72213721.31500615 1.10252217.31797813.38038554.91530161.38038554zm6.51112283-1.48290771q0 .653787-.25854269 1.15007087-.25854326.49628329-.73996784.76076993-.48142515.26151466-1.12332478.26151466-.98662379 0-1.54828646-.57949279-.5586907-.58246476-.5586907-1.59286267 0-1.0074261.5586907-1.57206024.5586907-.56463413 1.55422983-.56463413.99553913 0 1.55422983.57057762.5616621.57057768.5616621 1.56611675zm-.89449894 0q0-.67756095-.3209501-1.06091777-.3209501-.38632862-.90044289-.38632862-.58840813 0-.90935824.38335688-.32094953.38038508-.32094953 1.06388951 0 .6894478.32689347 1.08766346.32986487.39524425.89747092.39524425.58840813 0 .90638626-.38632891.3209501-.38632834.3209501-1.0965788zm4.10697077 2.1129206-1.82465984-3.22435828q.05349322.46953789.05349322.75482667v2.46953161h-.77860234v-4.18720801h1.0014825l1.85140588 3.25110374q-.05349149-.44873575-.05349149-.81723351v-2.43387024h.77860062v4.18720801zm5.26001241-1.20653428q0 .61515417-.45765109.94204764-.45467912.3239215-1.33729132.3239215-.80534665 0-1.26299717-.28528872-.45765109-.28528872-.58840813-.86478151l.84695082-.13967296q.08618147.33283684.33580882.48439655.24962792.14858831.69241972.14858831.91827358 0 .91827358-.5586907 0-.17830574-.10698356-.29420407-.10401159-.1158989-.29717547-.19316446-.19019248-.07726572-.73402447-.1872208-.46953783-.10995507-.65378694-.17533377-.18424911-.06835044-.33283684-.15750319-.14858831-.0921245-.25259932-.21991014-.10401159-.12778559-.16344702-.30014761-.05646634-.17236202-.05646634-.39524391 0-.56760587.42496169-.86775349.42793308-.30311935 1.24219508-.30311935.77860062 0 1.16790092.2436842.39227228.2436842.50519921.80534653l-.8499205.11589862q-.06537823-.27043006-.26745803-.40713094-.19910783-.13670088-.57354942-.13670088-.79643131 0-.79643131.49925544 0 .16344674.0832095.26745826.0861809.10401153.25259932.17830551.16641842.07132218.67458903.18127725.60326685.12778565.86181011.23774072.26151466.10698327.41307437.25259949.15155971.14264436.23179723.34472399.08023753.19910783.08023753.46062249zm2.5349091-2.30311279v3.50964707h-.87666883v-3.50964707h-1.35215004v-.67756095h3.58394087v.67756095z" display="inline" opacity="1" stroke-width=".999993" />
</svg>