<?xml version='1.0' encoding='utf8'?>
<svg xmlns="http://www.w3.org/2000/svg" height="135" viewBox="7.1583329875 15.8749996875 53.416664325 35.983330625" width="201">
    <g display="inline">
        <path d="m8.2166663 16.933333h51.2999977v33.866664h-51.2999977z" fill="#80dfff" stop-color="#000000" />
        <path d="m8.2166663 16.933333h51.2999977v33.866664h-51.2999977z" fill="none" stop-color="#000000" stroke="#000000" stroke-linejoin="round" stroke-width="1.05833" />
    </g>
<path d="m46.2118320 39.9234450 v-11.495988h-24.690332v11.495988m12.345166-11.495988v11.495988" display="inline" fill="none" opacity="1" stop-color="#000000" stroke="#000000" stroke-width="1.05833" />
<g display="inline" opacity="1" stroke-width="1.7389">
        <path d="m25.4863075 25.0749034 q.79345933218 0 1.10252269029-.79643130536l.76374190066.28826069598q-.24665594681.60623824842-.72510912466.90341428888-.47548120467.29420406727-1.14115546629.29420406727-1.01039784746 0-1.5631451792-.57057744561-.54977535855-.57354941879-.54977535855-1.6017780127 0-1.03120022205.53194524468-1.58394726625.53194466961-.55274710171 1.54234251708-.55274710171.73699586724 0 1.20059032933.29717586793.46359446209.29420406727.65081497078.86775348606l-.77265724513.21099485646q-.09806763904-.31500644186-.38632833503-.49925543743-.2852887228-.18722079622-.67458903101-.18722079622-.59435208091 0-.90341486395.36849804864-.30609080986.36849804864-.30609080986 1.07874834252 0 .72213720899.31500615433 1.10252217272.31797812751.38038553881.91530160653.38038553881z" stroke-width=".99999306597" />
        <path d="m31.9974303 23.5919957 q0 .65378700147-.25854268939 1.15007086826-.25854326446.49628329172-.73996784042.76076992748-.48142515103.26151466257-1.12332477734.26151466257-.98662378723 0-1.54828646344-.57949279008-.55869070303-.58246476326-.55869070303-1.59286266823 0-1.00742610431.55869070303-1.57206023614.55869070303-.56463413182 1.55422983473-.56463413182.9955391317 0 1.55422983473.57057761813.56166210114.57057767564.56166210114 1.56611674983zm-.89449894441 0q0-.67756094669-.32095010069-1.06091776859-.32095010069-.38632862256-.90044289077-.38632862256-.58840813455 0-.90935823524.38335687941-.32094952562.38038507875-.32094952562 1.06388951174 0 .68944780428.32689347198 1.08766345696.32986487009.39524425457.89747091759.39524425457.58840813455 0 .90638626206-.3863289101.32095010069-.38632833503.32095010069-1.09657880143z" stroke-width=".99999306597" />
        <path d="m35.2099022 25.7049163 -1.82465984177-3.22435828498q.05349321697.46953789089.05349321697.7548266712v2.46953161378h-.77860234164v-4.18720801198h1.00148250299l1.85140587518 3.25110374332q-.05349149176-.44873574633-.05349149176-.81723350743v-2.43387023589h.77860061642v4.18720801198z" stroke-width=".99999306597" />
        <path d="m40.4699146 24.4983820 q0 .61515416796-.4576510908.94204763994-.45467911762.3239214988-1.33729131944.3239214988-.80534664983 0-1.26299716556-.2852887228-.4576510908-.2852887228-.58840813455-.86478151288l.84695082394-.13967296329q.08618147154.33283684327.33580881645.48439654914.24962791999.14858830776.69241971996.14858830776.91827357971 0 .91827357971-.55869070303 0-.17830573929-.10698355859-.29420406727-.10401158541-.11589890306-.29717546538-.19316445505-.19019248187-.07726572451-.73402446913-.18722079622-.46953783338-.10995507171-.65378694396-.17533376611-.18424911058-.06835043755-.33283684327-.15750319218-.14858830776-.09212449778-.2525993181-.21991014342-.10401158541-.12778558813-.16344702353-.30014761109-.0564663403-.17236202295-.0564663403-.39524390953 0-.56760587498.4249616861-.86775348606.4279330842-.30311935424 1.24219507851-.30311935424.77860061642 0 1.16790092463.24368420366.39227228139.24368420366.50519921127.80534653482l-.84992049683.11589861552q-.06537823434-.27043006455-.26745803386-.40713093965-.19910782634-.1367008751-.57354941879-.1367008751-.79643130536 0-.79643130536.49925543743 0 .16344673599.08320949835.26745826389.08618089646.1040115279.2525993181.17830550926.16641842164.0713221807.67458903101.18127725241.60326685031.12778564564.86181011477.23774071735.26151466257.10698327105.41307436844.25259949062.15155970587.1426443614.23179723105.3447239884.08023752517.19910782634.08023752517.46062248891z" stroke-width=".99999306597" />
        <path d="m43.0048237 22.1952692 v3.50964706529h-.87666883053v-3.50964706529h-1.35215003521v-.67756094669h3.58394087413v.67756094669z" stroke-width=".99999306597" />
    </g>
</svg>