<?xml version='1.0' encoding='utf8'?>
<svg xmlns="http://www.w3.org/2000/svg" height="135" viewBox="7.1583329875 15.8749996875 53.416664325 35.983330625" width="201">
    <g display="inline">
        <path d="m8.2166663 16.933333h51.2999977v33.866664h-51.2999977z" fill="#80dfff" stop-color="#000000" />
        <path d="m8.2166663 16.933333h51.2999977v33.866664h-51.2999977z" fill="none" stop-color="#000000" stroke="#000000" stroke-linejoin="round" stroke-width="1.058333" />
    </g>
<path d="m21.8293810 39.3519620 v-10.970593h8.626981v1.775227h-6.330087v2.756274h5.855135v1.775227h-5.855135v2.888638h6.649316v1.775227zm21.76989 0h-2.725129l-1.487142-6.345659q-.272513-1.121196-.459379-2.343611-.186866 1.019977-.303657 1.557217-.116791.529453-1.658436 7.132053h-2.725129l-2.826349-10.970593h2.328039l1.588361 7.085337.35816 1.712938q.218011-1.082265.420449-2.063312.210224-.988833 1.557216-6.734963h2.569408l1.385923 5.839563q.163508.654031.552812 2.958712l.194652-.903186.412663-1.790799 1.323634-6.10429h2.328039z" display="inline" opacity="1" />
</svg>