<?xml version='1.0' encoding='utf8'?>
<svg xmlns="http://www.w3.org/2000/svg" height="135" viewBox="7.1583329875 15.8749996875 53.416664325 35.983330625" width="201">
    <g display="inline">
        <path d="m8.2166663 16.933333h51.2999977v33.866664h-51.2999977z" fill="#80dfff" stop-color="#000000" />
        <path d="m8.2166663 16.933333h51.2999977v33.866664h-51.2999977z" fill="none" stop-color="#000000" stroke="#000000" stroke-linejoin="round" stroke-width="1.058333" />
    </g>
<path d="m22.3619930 29.6494650 c-1.645891.511354-2.991517 2.493705-2.991517 4.217201s1.345626 3.705847 2.991517 4.217201c3.900506 1.211829 11.504673-4.217201 11.504673-4.217201s-7.604167-5.42903-11.504673-4.217201zm11.504673 4.217201s7.604167 5.42903 11.504673 4.217201c1.645891-.511354 2.991516-2.493705 2.991516-4.217201s-1.345625-3.705847-2.991516-4.217201c-3.900506-1.211829-11.504673 4.217201-11.504673 4.217201z" display="inline" fill="#000000" opacity="1" stop-color="#000000" stroke-width="1.00012" />
<path d="m33.6007916 26.0716625 q-1.46670104 0-2.24793361-.71570997-.77619297-.71570997-.77619297-2.04632524v-4.44042627h1.48686237v4.32450104q0 .84171538.39817715 1.28021322.40321675.43345825 1.17940874.43345825.79635332 0 1.22477197-.4536186.42841767-.45865917.42841767-1.31045492v-4.27409899h1.48686237v4.36482271q0 1.3507764-.836675 2.09672787-.8316354.7409109-2.34369869.7409109z" opacity="1" stroke-width="1" />
<path d="m35.4315922 48.6346036 v-3.04721152h-3.09766177v3.04721152h-1.48829029v-7.10847792h1.48829029v2.83027387h3.09766177v-2.83027387h1.48829029v7.10847792z" display="inline" opacity="1" stroke-width=".999994" />
</svg>