<?xml version='1.0' encoding='utf8'?>
<svg xmlns="http://www.w3.org/2000/svg" height="135" viewBox="7.1583329875 15.8749996875 53.416664325 35.983330625" width="201">
    <g display="inline">
        <path d="m8.2166663 16.933333h51.2999977v33.866664h-51.2999977z" fill="#80dfff" stop-color="#000000" />
        <path d="m8.2166663 16.933333h51.2999977v33.866664h-51.2999977z" fill="none" stop-color="#000000" stroke="#000000" stroke-linejoin="round" stroke-width="1.058333" />
    </g>
<path d="m27.9211843 33.8054043 q0 1.3355123164-.52685340321 2.33408387794-.52072805171.99244463641-1.48254199652 1.51929803962-.95568780649.52685419003-2.19318112295.52685419003h-3.49193660943v-8.63182252365h3.12436437617q2.18092884631 0 3.37553840772 1.1027166998 1.19461034822 1.09659056148 1.19461034822 3.14886971626zm-1.81948275137 0q0-1.39064834809-.72289218989-2.1196666763-.72289218989-.73514525335-2.06453064461-.73514525335h-1.28037707152v5.83827355083h1.53155110308q1.16397886981 0 1.85011344297-.80253277486.68613535997-.80253277486.68613535997-2.18092884631zm11.57852652809.02450455328q0 1.34776459304-.53298032835 2.37084070786-.53297954153 1.02307611482-1.52542496476 1.56830871981-.99244463641.53910567985-2.31570467617.53910567985-2.03389995301 0-3.1917526845-1.19460956141-1.15172659317-1.20073569973-1.15172659317-3.28364554611 0-2.07678370806 1.15172659317-3.24076179106 1.15172659317-1.16397886981 3.20400496114-1.16397886981 2.05227836797 0 3.20400496114 1.17623114645 1.15785273149 1.17623114645 1.15785273149 3.22850951442zm-1.84398809146 0q0-1.39677448641-.66163001988-2.18705498463-.66163001988-.79640663654-1.85623958129-.79640663654-1.21298876318 0-1.87461878306.79028049822-.66163001988.78415435991-.66163001988 2.19318112295 0 1.42127903969.67388229652 2.24219101633.68000922165.8147850515 1.85011422978.8147850515 1.21298797637 0 1.86849185793-.79640663654.66163001988-.79640663654.66163001988-2.26056943129zm7.30856169707 3.06310220615q.70451377493 0 1.36614379481-.202164925.66163001988-.20829106332 1.02307611482-.52685340321v-1.19460956141h-2.10741439966v-1.33551310321h3.76148984276v3.17337426954q-.68613535997.70451298812-1.78885205977 1.1027166998-1.09659056148.39820292487-2.30345239953.39820292487-2.10741439966 0-3.24076257787-1.16397886981-1.1333473914-1.17010500813-1.1333473914-3.31427623771 0-2.13191895294 1.13947352972-3.26526713115 1.13947431653-1.13947352972 3.27751940779-1.13947352972 3.03859765287 0 3.86563498102 2.24831636783l-1.66632771974.50234884993q-.26955244652-.65550388156-.8454157431-.99244463641-.57586329659-.33694154167-1.35389151817-.33694154167-1.27425014638 0-1.93588016626.77190208327-.66163001988.77190129645-.66163001988 2.21155953791 0 1.46416279474.68000843484 2.26669556961.68613457316.79640663654 1.92362788962.79640663654z" display="inline" opacity="1" stroke-width="1.00000199045" />
</svg>