<?xml version='1.0' encoding='utf8'?>
<svg xmlns="http://www.w3.org/2000/svg" height="135" viewBox="7.1583329875 15.8749996875 53.416664325 35.983330625" width="201">
    <g display="inline">
        <path d="m8.2166663 16.933333h51.2999977v33.866664h-51.2999977z" fill="#80dfff" stop-color="#000000" />
        <path d="m8.2166663 16.933333h51.2999977v33.866664h-51.2999977z" fill="none" stop-color="#000000" stroke="#000000" stroke-linejoin="round" stroke-width="1.058333" />
    </g>
<path d="m27.9211843 33.8054044 q0 1.33551232-.5268534 2.33408388-.52072805.99244464-1.482542 1.51929804-.95568781.52685419-2.19318112.52685419h-3.49193661v-8.63182252h3.12436438q2.18092885 0 3.37553841 1.1027167 1.19461035 1.09659056 1.19461035 3.14886972zm-1.81948275 0q0-1.39064835-.72289219-2.11966668-.72289219-.73514525-2.06453064-.73514525h-1.28037707v5.83827355h1.5315511q1.16397887 0 1.85011344-.80253277.68613536-.80253277.68613536-2.18092885zm11.57852653.02450141q0 1.34776459-.53298033 2.37084071-.53297954 1.02307611-1.52542496 1.56830872-.99244464.53910568-2.31570468.53910568-2.03389995 0-3.19175268-1.19460956-1.15172659-1.2007357-1.15172659-3.28364555 0-2.07678371 1.15172659-3.24076179 1.15172659-1.16397887 3.20400496-1.16397887 2.05227837 0 3.20400496 1.17623115 1.15785273 1.17623115 1.15785273 3.22850951zm-1.84398809 0q0-1.39677449-.66163002-2.18705498-.66163002-.79640664-1.85623958-.79640664-1.21298876 0-1.87461878.7902805-.66163002.78415436-.66163002 2.19318112 0 1.42127904.6738823 2.24219102.68000922.81478505 1.85011423.81478505 1.21298798 0 1.86849186-.79640664.66163002-.79640664.66163002-2.26056943zm7.3085617 3.06310221q.70451377 0 1.36614379-.20216493.66163002-.20829106 1.02307611-.5268534v-1.19460956h-2.1074144v-1.3355131h3.76148984v3.17337427q-.68613536.70451299-1.78885206 1.1027167-1.09659056.39820292-2.3034524.39820292-2.1074144 0-3.24076258-1.16397887-1.13334739-1.17010501-1.13334739-3.31427624 0-2.13191895 1.13947353-3.26526713 1.13947432-1.13947353 3.27751941-1.13947353 3.03859765 0 3.86563498 2.24831637l-1.66632772.50234885q-.26955245-.65550388-.84541574-.99244464-.5758633-.33694154-1.35389152-.33694154-1.27425015 0-1.93588017.77190208-.66163002.7719013-.66163002 2.21155954 0 1.46416279.68000843 2.26669557.68613457.79640664 1.92362789.79640664z" display="inline" opacity="1" stroke-width="1.000002" />
</svg>