<?xml version='1.0' encoding='utf8'?>
<svg xmlns="http://www.w3.org/2000/svg" height="135" viewBox="7.1583329875 15.8749996875 53.416664325 35.983330625" width="201">
    <g display="inline">
        <path d="m8.2166663 16.933333h51.2999977v33.866664h-51.2999977z" fill="#80dfff" stop-color="#000000" />
        <path d="m8.2166663 16.933333h51.2999977v33.866664h-51.2999977z" fill="none" stop-color="#000000" stroke="#000000" stroke-linejoin="round" stroke-width="1.05833" />
    </g>
<path d="m20.9785640 27.0934360 v6.77323 6.77323l12.888102-6.77323zm12.888102 6.77323 12.888103 6.77323v-6.77323-6.77323z" display="inline" fill="#000000" opacity="1" stop-color="#000000" stroke-width="1.00012" />
<path d="m33.6007916 26.0716625 q-1.46670104301 0-2.24793361431-.71570997165-.77619297154-.71570997165-.77619297154-2.04632524027v-4.44042626685h1.48686236809v4.32450103726q0 .84171537611.39817714831 1.28021322388.40321674807.43345824801 1.17940874426.43345824801.79635332127 0 1.22477196951-.45361859774.4284176729-.45865917284.4284176729-1.31045491889v-4.27409899252h1.48686236809v4.36482271207q0 1.35077639863-.83667499607 2.09672787022-.83163539631.74091089649-2.34369868924.74091089649z" opacity="1" stroke-width="1.00000016317" />
<path d="m31.4207765 48.6346036 v-7.10847792121h1.48828931363v5.95820608737h3.81405908436v1.15027183384z" display="inline" opacity="1" stroke-width=".99999400509" />
</svg>