<?xml version='1.0' encoding='utf8'?>
<svg xmlns="http://www.w3.org/2000/svg" height="135" viewBox="7.1583329875 15.8749996875 53.416664325 35.983330625" width="201">
    <g display="inline">
        <path d="m8.2166663 16.933333h51.2999977v33.866664h-51.2999977z" fill="#80dfff" stop-color="#000000" />
        <path d="m8.2166663 16.933333h51.2999977v33.866664h-51.2999977z" fill="none" stop-color="#000000" stroke="#000000" stroke-linejoin="round" stroke-width="1.058333" />
    </g>
<path d="m20.9785640 27.0934360 v6.77323 6.77323l12.888102-6.77323zm12.888102 6.77323 12.888103 6.77323v-6.77323-6.77323z" display="inline" fill="#000000" opacity="1" stop-color="#000000" stroke-width="1.00012" />
<path d="m33.6007916 26.0716625 q-1.46670104 0-2.24793361-.71570997-.77619297-.71570997-.77619297-2.04632524v-4.44042627h1.48686237v4.32450104q0 .84171538.39817715 1.28021322.40321675.43345825 1.17940874.43345825.79635332 0 1.22477197-.4536186.42841767-.45865917.42841767-1.31045492v-4.27409899h1.48686237v4.36482271q0 1.3507764-.836675 2.09672787-.8316354.7409109-2.34369869.7409109z" opacity="1" stroke-width="1" />
<path d="m36.1757373 48.6346036 v-4.3084744q0-.14630652 0-.29261294.00507666-.14630652.05045416-1.25621785-.35819817 1.35711885-.52973059 1.89189427l-1.28144288 3.96541092h-1.05946118l-1.28144288-3.96541092-.53982045-1.89189427q.06053913 1.17045194.06053913 1.54883079v4.3084744h-1.32180621v-7.10847792h1.99279575l1.27135303 3.97550048.11099134.38342398.24216239.95351428.31783777-1.1401812 1.30666899-4.17225754h1.98270492v7.10847792z" display="inline" opacity="1" stroke-width=".999994" />
</svg>