<?xml version='1.0' encoding='utf8'?>
<svg xmlns="http://www.w3.org/2000/svg" height="135" viewBox="7.1583329875 15.8749996875 53.416664325 35.983330625" width="201">
    <g display="inline">
        <path d="m8.2166663 16.933333h51.2999977v33.866664h-51.2999977z" fill="#80dfff" stop-color="#000000" />
        <path d="m8.2166663 16.933333h51.2999977v33.866664h-51.2999977z" fill="none" stop-color="#000000" stroke="#000000" stroke-linejoin="round" stroke-width="1.05833" />
    </g>
<g display="inline" opacity="1" stop-color="#000000" stop-opacity="1">
        <path d="m31.8228190 39.3519620 v-6.649316q0-.225796 0-.451593.0078-.225796.07786-1.938735-.552812 2.094457-.817539 2.919782l-1.977665 6.119862h-1.635078l-1.977665-6.119862-.833111-2.919782q.09343 1.806372.09343 2.390328v6.649316h-2.03995v-10.970593h3.075503l1.962093 6.135435.171294.591742.373732 1.47157.490524-1.759655 2.016595-6.439092h3.059931v10.970593z" />
        <path d="m45.0202320 31.8539630 q0 1.058907-.482738 1.892018-.482737.833111-1.385923 1.29249-.895399.451593-2.133387.451593h-2.725129v3.861898h-2.296895v-10.970593h4.928591q1.96988 0 3.028787.910972 1.066694.903186 1.066694 2.561622zm-2.312467.03893q0-1.72851-2.039954-1.72851h-2.374756v3.55824h2.437044q.949903 0 1.463784-.467165.513882-.474951.513882-1.362565z" />
    </g>
<g display="inline" opacity="1" stroke-width="1.35626">
        <path d="m31.4165565 23.5869649 q0 .83824159644-.33148673538 1.47454329693-.33148599806.63630096317-.94873685539.97540788835-.61725012001.33529646162-1.44025126312.33529646162-1.26498247386 0-1.98510773676-.74298656962-.71631553666-.74679703317-.71631553666-2.04226107727 0-1.29165380174.71631553666-2.01558960193.71631553666-.72393580019 1.99272866388-.72393580019 1.27641312721 0 1.99272792656.73155613745.72012600022.73155621119.72012600022 2.00796926467zm-1.14686695137 0q0-.86872294549-.41150057156-1.36023720575-.41149983424-.49532450263-1.15448640385-.49532450263-.75441796029 0-1.16591779453.491514334-.41150057156.48770409164-.41150057156 1.36404737438 0 .88396347255.41912076135 1.39452872343.42293122491.50675552465 1.15067667761.50675552465.75441722297 0 1.16210733097-.49532487129.41150057156-.49532413397.41150057156-1.40595937679z" stroke-width=".99999599569" />
        <path d="m36.6822374 22.6267974 q0 .51818558815-.23623178229.92587576988-.23623178229.40769018173-.67821385035.63249123693-.43817160451.2209911815-1.04399180848.2209911815h-1.33356565668v1.88985352099h-1.12400564466v-5.36855569276h2.41184942523q.96397723499 0 1.48216341299.4457920155.52199590424.44198184687.52199590424 1.25355196796zm-1.13162657178.01905084315q0-.84586178624-.99826919506-.84586178624h-1.16210733097v1.7412560596h1.19258882748q.46484337478 0 .71631553666-.22861129756.25147216188-.23242146619.25147216188-.6667829758z" stroke-width=".99999599569" />
        <path d="m41.8488521 24.7490723 q0 .78870918304-.5867686235 1.20782994439-.58295889726.41531029779-1.71458473172.41531029779-1.03256115513 0-1.61933051595-.36577795813-.5867686235-.36577795813-.75441722297-1.10876452775l1.08590395835-.17907925283q.11049533269.42674095115.43055141471.62106058357.3200553447.19050990618.88777386237.19050990618 1.17734771056 0 1.17734771056-.71631553666 0-.22861159249-.13716636564-.37720861149-.1333566394-.14859775631-.38101907504-.24766243564-.24385197209-.09906490053-.9411166656-.24004187719-.60200974042-.14097697666-.83824152271-.22480112893-.23623104497-.0876343209-.42674095115-.20193996968-.19050916886-.11811581741-.32386580826-.28195395332-.1333566394-.16383806218-.20956001202-.38482902248-.07239733297-.2209909603-.07239733297-.50675508225 0-.72774596882.54485647364-1.1125749913.54866767451-.38863919111 1.59265874568-.38863919111.99826919506 0 1.49740452991.31243544983.50294432377.31243544983.64773161652 1.03256100766l-1.089709998.14859738765q-.08382429973-.34672718871-.34291738874-.52199583051-.25528262544-.1752686418-.73536637982-.1752686418-1.02112976445 0-1.02112976445.64011164792 0 .20956038068.10668486913.34291694634.11049533269.13335656567.32386580826.22861129756.21337047558.09144448953.86491329298.23242146619.77346806613.16383813591 1.10495406419.30481511257.33529719894.1371667343.52961683136.32386602946.1943188951.18288897906.29719403799.44198184687.10287514289.25528262544.10287514289.59057908706z" stroke-width=".99999599569" />
    </g>
</svg>