<?xml version='1.0' encoding='utf8'?>
<svg xmlns="http://www.w3.org/2000/svg" height="135" viewBox="7.1583329875 15.8749996875 53.416664325 35.983330625" width="201">
    <g display="inline">
        <path d="m8.2166663 16.933333h51.2999977v33.866664h-51.2999977z" fill="#80dfff" stop-color="#000000" />
        <path d="m8.2166663 16.933333h51.2999977v33.866664h-51.2999977z" fill="none" stop-color="#000000" stroke="#000000" stroke-linejoin="round" stroke-width="1.058333" />
    </g>
<path d="m31.8228190 39.3519620 v-6.649316q0-.225796 0-.451593.0078-.225796.07786-1.938735-.552812 2.094457-.817539 2.919782l-1.977665 6.119862h-1.635078l-1.977665-6.119862-.833111-2.919782q.09343 1.806372.09343 2.390328v6.649316h-2.03995v-10.970593h3.075503l1.962093 6.135435.171294.591742.373732 1.47157.490524-1.759655 2.016595-6.439092h3.059931v10.970593zm13.197413-7.497999q0 1.058907-.482738 1.892018-.482737.833111-1.385923 1.29249-.895399.451593-2.133387.451593h-2.725129v3.861898h-2.296895v-10.970593h4.928591q1.96988 0 3.028787.910972 1.066694.903186 1.066694 2.561622zm-2.312467.03893q0-1.72851-2.039954-1.72851h-2.374756v3.55824h2.437044q.949903 0 1.463784-.467165.513882-.474951.513882-1.362565z" display="inline" opacity="1" />
<path d="m31.4165565 23.5869649 q0 .8382416-.33148674 1.4745433-.331486.63630096-.94873686.97540789-.61725012.33529646-1.44025126.33529646-1.26498247 0-1.98510774-.74298657-.71631554-.74679703-.71631554-2.04226108 0-1.2916538.71631554-2.0155896.71631554-.7239358 1.99272866-.7239358 1.27641313 0 1.99272793.73155614.720126.73155621.720126 2.00796926zm-1.14686695 0q0-.86872295-.41150057-1.36023721-.41149983-.4953245-1.1544864-.4953245-.75441796 0-1.16591779.49151433-.41150057.48770409-.41150057 1.36404737 0 .88396347.41912076 1.39452872.42293122.50675552 1.15067668.50675552.75441722 0 1.16210733-.49532487.41150057-.49532413.41150057-1.40595938zm6.41254787-.96016744q0 .51818559-.23623178.92587577-.23623178.40769018-.67821385.63249124-.4381716.22099118-1.04399181.22099118h-1.33356566v1.88985352h-1.12400564v-5.36855569h2.41184943q.96397723 0 1.48216341.44579202.5219959.44198185.5219959 1.25355197zm-1.13162657.01905084q0-.84586179-.9982692-.84586179h-1.16210733v1.74125606h1.19258883q.46484337 0 .71631554-.2286113.25147216-.23242147.25147216-.66678298zm6.29824134 2.10322392q0 .78870918-.58676862 1.20782994-.5829589.4153103-1.71458473.4153103-1.03256116 0-1.61933052-.36577796-.58676862-.36577796-.75441722-1.10876453l1.08590396-.17907925q.11049533.42674095.43055141.62106058.32005534.19050991.88777386.19050991 1.17734771 0 1.17734771-.71631554 0-.22861159-.13716637-.37720861-.13335664-.14859768-.38101908-.24766236-.24385197-.0990649-.94111667-.24004188-.60200974-.14097698-.83824152-.22480113-.23623104-.08763432-.42674095-.20193997-.19050917-.11811582-.32386581-.28195395-.13335664-.16383806-.20956001-.38482902-.07239733-.22099096-.07239733-.50675508 0-.72774597.54485647-1.11257499.54866767-.38863919 1.59265875-.38863919.9982692 0 1.49740453.31243545.50294432.31243545.64773162 1.03256101l-1.08971.14859739q-.0838243-.34672719-.34291739-.52199583-.25528263-.17526864-.73536638-.17526864-1.02112976 0-1.02112976.64011165 0 .20956038.10668487.34291695.11049533.13335657.32386581.2286113.21337048.09144449.86491329.23242147.77346807.16383814 1.10495406.30481511.3352972.13716673.52961683.32386603.1943189.18288898.29719404.44198185.10287514.25528263.10287514.59057909z" display="inline" opacity="1" stroke-width=".999996" />
</svg>