<?xml version='1.0' encoding='utf8'?>
<svg xmlns="http://www.w3.org/2000/svg" height="135" viewBox="7.1583329875 15.8749996875 53.416664325 35.983330625" width="201">
    <g display="inline">
        <path d="m8.2166663 16.933333h51.2999977v33.866664h-51.2999977z" fill="#80dfff" stop-color="#000000" />
        <path d="m8.2166663 16.933333h51.2999977v33.866664h-51.2999977z" fill="none" stop-color="#000000" stroke="#000000" stroke-linejoin="round" stroke-width="1.05833" />
    </g>
<g display="inline" opacity="1" stop-color="#000000" stop-opacity="1">
        <path d="m31.8228190 39.3519620 v-6.649316q0-.225796 0-.451593.0078-.225796.07786-1.938735-.552812 2.094457-.817539 2.919782l-1.977665 6.119862h-1.635078l-1.977665-6.119862-.833111-2.919782q.09343 1.806372.09343 2.390328v6.649316h-2.03995v-10.970593h3.075503l1.962093 6.135435.171294.591742.373732 1.47157.490524-1.759655 2.016595-6.439092h3.059931v10.970593z" />
        <path d="m45.0202320 31.8539630 q0 1.058907-.482738 1.892018-.482737.833111-1.385923 1.29249-.895399.451593-2.133387.451593h-2.725129v3.861898h-2.296895v-10.970593h4.928591q1.96988 0 3.028787.910972 1.066694.903186 1.066694 2.561622zm-2.312467.03893q0-1.72851-2.039954-1.72851h-2.374756v3.55824h2.437044q.949903 0 1.463784-.467165.513882-.474951.513882-1.362565z" />
    </g>
</svg>