<?xml version='1.0' encoding='utf8'?>
<svg xmlns="http://www.w3.org/2000/svg" height="135" viewBox="7.1583329875 15.8749996875 53.416664325 35.983330625" width="201">
    <g display="inline">
        <path d="m8.2166663 16.933333h51.2999977v33.866664h-51.2999977z" fill="#80dfff" stop-color="#000000" />
        <path d="m8.2166663 16.933333h51.2999977v33.866664h-51.2999977z" fill="none" stop-color="#000000" stroke="#000000" stroke-linejoin="round" stroke-width="1.058333" />
    </g>
<path clip-rule="nonzero" color-interpolation="sRGB" color-interpolation-filters="linearRGB" color-rendering="auto" d="m33.8671822 27.0505446 -2.97242703 2.97294561.74775747.74775747 1.6955029-1.69498696v5.92883618c-1.28955534.24931952-2.27169395 1.38911805-2.27169395 2.74867155 0 1.54045442 1.26040619 2.80086061 2.80086061 2.80086061s2.80086326-1.26040619 2.80086326-2.80086061c0-1.3595535-.98213861-2.49935203-2.2716966-2.74867155v-5.92883618l1.69550554 1.69498696.74775747-.74775747zm0 8.96120985c.9684914 0 1.742014.77352259 1.742014 1.742014 0 .96848876-.77352259 1.74252729-1.742014 1.74252729s-1.74201135-.77403853-1.74201135-1.74252729c0-.9684914.77351995-1.742014 1.74201135-1.742014z" display="inline" fill="#000000" fill-opacity="1" fill-rule="nonzero" image-rendering="auto" opacity="1" shape-rendering="auto" stop-color="#000000" stop-opacity="1" text-rendering="auto" visibility="visible" />
</svg>