<?xml version='1.0' encoding='utf8'?>
<svg xmlns="http://www.w3.org/2000/svg" height="135" viewBox="7.1583329875 15.8749996875 53.416664325 35.983330625" width="201">
    <g display="inline">
        <path d="m8.2166663 16.933333h51.2999977v33.866664h-51.2999977z" fill="#80dfff" stop-color="#000000" />
        <path d="m8.2166663 16.933333h51.2999977v33.866664h-51.2999977z" fill="none" stop-color="#000000" stroke="#000000" stroke-linejoin="round" stroke-width="1.058333" />
    </g>
<path clip-rule="nonzero" color-interpolation="sRGB" color-interpolation-filters="linearRGB" color-rendering="auto" d="m33.8673960 27.5955720 c-.914965 0-1.66436.749393-1.66436 1.664358 0 .782971.550289 1.440367 1.282009 1.615024l-.01235.433139h-3.301877v.742939h3.280832l-.19517 6.899035c-2.585595-.142798-4.00854-1.149234-4.00854-1.149234l.391782-.444023-2.194717-.835806 1.102076 2.073555.369294-.417903c.829788.869551 2.37894 1.961101 4.950268 1.961101s4.12048-1.091548 4.950269-1.961101l.369293.417903 1.102076-2.073555-2.194717.835806.391782.444023s-1.423462 1.006738-4.009986 1.149234l-.195168-6.899035h3.280833v-.742939h-3.301873l-.01235-.431689c.733341-.17347 1.28491-.832345 1.284908-1.616474 0-.914965-.749396-1.664358-1.66436-1.664358zm0 .74294c.513449 0 .921419.407967.921419.921418s-.40797.92142-.921419.92142c-.51345 0-.92142-.407969-.92142-.92142s.40797-.921418.92142-.921418z" display="inline" fill="#000000" fill-opacity="1" fill-rule="nonzero" image-rendering="auto" opacity="1" shape-rendering="auto" stop-color="#000000" stop-opacity="1" text-rendering="auto" visibility="visible" />
</svg>