<?xml version='1.0' encoding='utf8'?>
<svg xmlns="http://www.w3.org/2000/svg" height="135" viewBox="7.1583329875 15.8749996875 53.416664325 35.983330625" width="201">
    <g display="inline">
        <path d="m8.2166663 16.933333h51.2999977v33.866664h-51.2999977z" fill="#80dfff" stop-color="#000000" />
        <path d="m8.2166663 16.933333h51.2999977v33.866664h-51.2999977z" fill="none" stop-color="#000000" stroke="#000000" stroke-linejoin="round" stroke-width="1.058333" />
    </g>
<path d="m29.0446507 35.5569791 q0 1.170216-.87059573 1.79206988-.86494257.61620073-2.54394857.61620073-1.53202245 0-2.40261818-.54270895-.87059573-.54270895-1.11933685-1.64508633l1.61116738-.26570132q.16394303.6331602.63881336.92147488.47487033.28266079 1.31720027.28266079 1.74684462 0 1.74684462-1.06280527 0-.33919309-.20351586-.55966842-.1978627-.22047606-.56532231-.36745961-.36180573-.14698355-1.39634448-.35615257-.89320909-.20916901-1.2437085-.33353994-.35049941-.13002408-.6331602-.29962026-.28266152-.17525007-.48052349-.41833876-.1978627-.24308796-.31092731-.57097474-.10741145-.32788678-.10741145-.75187797 0-1.07976475.80841027-1.65074021.81406343-.5766279 2.36304535-.5766279 1.4811433 0 2.22171495.46356329.74622553.46356402.96104771 1.53202245l-1.61682054.22047606q-.12437092-.51444316-.50879001-.77449132-.3787652-.26004816-1.09107106-.26004816-1.51506297 0-1.51506297.94974067 0 .31092731.15829059.50879001.16394303.1978627.48052349.33919309.31658046.13567724 1.2832806.34484625 1.14760336.24308869 1.63943317.4522577.49748369.20351586.78579764.48052349.28831395.27135448.44095139.65577356.15263671.3787652.15263671.87624889zm1.2267483 2.29520673v-7.96538566h6.2637663v1.28893376h-4.59606662v2.00123962h4.25122036v1.28893376h-4.25122036v2.09734476h4.82784899v1.28893376zm11.4421147-1.19848251q1.50940982 0 2.09734403-1.51506297l1.45287751.54836284q-.46921717 1.15325652-1.37938574 1.7185781-.90451468.55966842-2.17083581.55966842-1.92209396 0-2.97359292-1.0854179-1.04584507-1.09107106-1.04584507-3.04708469 0-1.96166679 1.01192613-3.01316575 1.01192613-1.05149823 2.93402009-1.05149823 1.40199837 0 2.28390041.56532158.88190205.55966842 1.23805461 1.65074021l-1.46983626.40137783q-.18655638-.59924053-.73491849-.94974067-.54270895-.35615257-1.2832806-.35615257-1.13064389 0-1.71857883.70099882-.58228178.70099955-.58228178 2.05211877 0 1.37373185.59924126 2.09734403.60489441.72361218 1.74119146.72361218z" display="inline" opacity="1" stroke-width="1.000005" />
</svg>