<?xml version='1.0' encoding='utf8'?>
<svg xmlns="http://www.w3.org/2000/svg" height="135" viewBox="7.1583329875 15.8749996875 53.416664325 35.983330625" width="201">
    <g display="inline">
        <path d="m8.2166663 16.933333h51.2999977v33.866664h-51.2999977z" fill="#80dfff" stop-color="#000000" />
        <path d="m8.2166663 16.933333h51.2999977v33.866664h-51.2999977z" fill="none" stop-color="#000000" stroke="#000000" stroke-linejoin="round" stroke-width="1.058333" />
    </g>
<path d="m29.0446507 35.5569791 q0 1.17021599529-.87059573081 1.79206988128-.86494257307.61620072825-2.54394857348.61620072825-1.53202244704 0-2.40261817785-.54270895156-.87059573081-.54270895156-1.11933684956-1.64508632791l1.61116738147-.26570131804q.16394302659.63316020147.63881335921.92147487654.47487033262.28266079126 1.31720027473.28266079126 1.74684461936 0 1.74684461936-1.06280527217 0-.33919309473-.20351585684-.55966842478-.1978626991-.22047605612-.56532230859-.36745960949-.36180572569-.14698355337-1.39634448309-.35615256795-.89320908784-.20916901458-1.24370849804-.33353993699-.35049941021-.13002408015-.63316020147-.29962026448-.28266151733-.17525006814-.48052349036-.41833875522-.1978626991-.24308796102-.31092730603-.57097474026-.10741144919-.32788677925-.10741144919-.75187796614 0-1.07976474539.8084102696-1.65074021171.81406342734-.576627898 2.36304534761-.576627898 1.48114330132 0 2.22171495198.46356329107.74622553447.46356401714.96104770678 1.53202244704l-1.61682053921.22047605612q-.12437092241-.51444316286-.50879000512-.77449132316-.37876519891-.2600481603-1.09107106087-.2600481603-1.51506297382 0-1.51506297382.94974066523 0 .31092730603.15829059492.50879000512.16394302659.1978626991.48052349036.33919309473.31658046377.13567723789 1.28328060222.34484625247 1.14760336433.24308868708 1.63943317017.45225770166.49748368964.20351585684.78579763864.48052349036.288313949.27135447578.44095138618.65577355849.15263671111.37876519891.15263671111.87624888855zm1.22674829876 2.29520672866v-7.96538565744h6.2637663v1.28893375996h-4.59606661506v2.00123962192h4.2512203626v1.28893375996h-4.2512203626v2.09734475563h4.82784898667v1.28893375996zm11.44211469687-1.19848251006q1.50940981608 0 2.09734402957-1.51506297382l1.45287751262.54836283537q-.46921717488 1.15325652207-1.37938573593 1.71857810459-.90451467725.55966842478-2.17083580625.55966842478-1.92209396143 0-2.97359291811-1.08541790313-1.04584507288-1.09107106087-1.04584507288-3.0470846948 0-1.96166679167 1.01192612644-3.01316574836 1.01192612644-1.05149823062 2.93402008787-1.05149823062 1.40199836689 0 2.28390041318.56532158252.88190204629.55966842478 1.23805461424 1.65074021171l-1.46983625977.40137782987q-.18655638362-.59924052896-.73491849292-.94974066523-.54270895156-.35615256795-1.28328060222-.35615256795-1.13064389111 0-1.71857883066.70099882041-.58228178181.70099954648-.58228178181 2.05211876765 0 1.37373185213.59924125503 2.09734402957.60489441277.72361217744 1.74119146162.72361217744z" display="inline" opacity="1" stroke-width="1.0000048322" />
</svg>