<?xml version='1.0' encoding='utf8'?>
<svg xmlns="http://www.w3.org/2000/svg" height="135" viewBox="7.1583329875 15.8749996875 53.416664325 35.983330625" width="201">
    <g display="inline">
        <path d="m8.2166663 16.933333h51.2999977v33.866664h-51.2999977z" fill="#80dfff" stop-color="#000000" />
        <path d="m8.2166663 16.933333h51.2999977v33.866664h-51.2999977z" fill="none" stop-color="#000000" stroke="#000000" stroke-linejoin="round" stroke-width="1.058333" />
    </g>
<circle cx="33.866665" cy="33.866665" display="inline" fill="#000000" opacity="1" r="5.887731" stop-color="#000000" />
<path d="m27.1523320 28.0642850 h13.42867c3.214516 0 5.802375 2.58786 5.802375 5.802376s-2.587859 5.802375-5.802375 5.802375h-13.42867c-3.214516 0-5.802375-2.587859-5.802375-5.802375s2.587859-5.802376 5.802375-5.802376z" display="inline" fill="none" opacity="1" stop-color="#000000" stroke="#000000" stroke-width="1.05833" />
<g display="inline" opacity="1">
        <path d="m29.8976860 26.0349990  3.96898-3.968981 3.96898 3.968981" fill="none" stop-color="#000000" stroke="#000000" stroke-width="1.05833" />
        <path d="m29.8976860 22.8599970  3.96898-3.968981 3.96898 3.968981" fill="none" stop-color="#000000" stroke="#000000" stroke-width="1.05833" />
    </g>
<path d="m30.5516439 43.8561591 q0 .83062103798-.32767627182 1.45168162155-.32386654558.61725085733-.92206582244.94492712915-.59438955062.32767627182-1.36404715319.32767627182h-2.1718079167v-5.36855569276h1.94319632421q1.35642696339 0 2.09941353301.68583389269.74298730693.68202372406.74298730693 1.95843677754zm-1.13162657178 0q0-.86491270312-.44960225786-1.31832512962-.44960225786-.45722259513-1.28403331701-.45722259513h-.79632937284v3.63110972805h.95254731895q.72393572646 0 1.15067667761-.49913459753.42674095115-.49913533485.42674095115-1.35642740578zm1.98129801052 2.72428502253v-5.36855569276h4.22168911004v.86872294549h-3.09768346538v1.34880662613h2.86526214665v.86872294549h-2.86526214665v1.41358015644h3.2539014115v.86872301922zm9.66263808052 0v-3.2539011903q0-.11049548015 0-.22099088657.00381046356-.11049548015.03810168631-.94873692913-.27052300504 1.0249406704-.40006918088 1.42882060977l-.96778843587 2.99480839623h-.80013909908l-.96778769855-2.99480839623-.407690108-1.42882060977q.04572187611.88396369374.04572187611 1.16972781569v3.2539011903h-.99826919506v-5.36855569276h1.50502398239l.96016750875 3.00242836483.08382429973.28957436432.18288897906.7201252629.24004224585-.86110223956.9868385417-3.15102575248h1.49740379259v5.36855569276z" display="inline" opacity="1" stroke-width=".99999599569" />
</svg>