<?xml version='1.0' encoding='utf8'?>
<svg xmlns="http://www.w3.org/2000/svg" height="135" viewBox="7.1583329875 15.8749996875 53.416664325 35.983330625" width="201">
    <g display="inline">
        <path d="m8.2166663 16.933333h51.2999977v33.866664h-51.2999977z" fill="#80dfff" stop-color="#000000" />
        <path d="m8.2166663 16.933333h51.2999977v33.866664h-51.2999977z" fill="none" stop-color="#000000" stroke="#000000" stroke-linejoin="round" stroke-width="1.058333" />
    </g>
<circle cx="33.866665" cy="33.866665" display="inline" fill="#000000" opacity="1" r="5.887731" stop-color="#000000" />
<path d="m27.1523320 28.0642850 h13.42867c3.214516 0 5.802375 2.58786 5.802375 5.802376s-2.587859 5.802375-5.802375 5.802375h-13.42867c-3.214516 0-5.802375-2.587859-5.802375-5.802375s2.587859-5.802376 5.802375-5.802376z" display="inline" fill="none" opacity="1" stop-color="#000000" stroke="#000000" stroke-width="1.05833" />
<g display="inline" opacity="1">
        <path d="m29.8976860 26.0349990  3.96898-3.968981 3.96898 3.968981" fill="none" stop-color="#000000" stroke="#000000" stroke-width="1.05833" />
        <path d="m29.8976860 22.8599970  3.96898-3.968981 3.96898 3.968981" fill="none" stop-color="#000000" stroke="#000000" stroke-width="1.05833" />
    </g>
<path d="m30.5516439 43.8561591 q0 .83062104-.32767627 1.45168162-.32386655.61725086-.92206582.94492713-.59438955.32767627-1.36404715.32767627h-2.17180792v-5.36855569h1.94319632q1.35642696 0 2.09941353.68583389.74298731.68202372.74298731 1.95843678zm-1.13162657 0q0-.8649127-.44960226-1.31832513-.44960226-.4572226-1.28403332-.4572226h-.79632937v3.63110973h.95254732q.72393573 0 1.15067668-.4991346.42674095-.49913533.42674095-1.35642741zm1.98129801 2.72428502v-5.36855569h4.22168911v.86872295h-3.09768347v1.34880663h2.86526215v.86872295h-2.86526215v1.41358016h3.25390141v.86872302zm9.66263808 0v-3.25390119q0-.11049548 0-.22099089.00383406-.11049548.03810464-.94873693-.27052301 1.02494067-.40006918 1.42882061l-.96778844 2.9948084h-.8001391l-.9677877-2.9948084-.40769011-1.42882061q.04572114.88396369.04572114 1.16972782v3.25390119h-.99827141v-5.36855569h1.50502398l.96016751 3.00242836.0838243.28957436.18288898.72012526.24004225-.86110224.98683854-3.15102575h1.49740379v5.36855569z" display="inline" opacity="1" stroke-width=".999996" />
</svg>