<?xml version='1.0' encoding='utf8'?>
<svg xmlns="http://www.w3.org/2000/svg" height="135" viewBox="7.1583329875 15.8749996875 53.416664325 35.983330625" width="201">
    <g display="inline">
        <path d="m8.2166663 16.933333h51.2999977v33.866664h-51.2999977z" fill="#80dfff" stop-color="#000000" />
        <path d="m8.2166663 16.933333h51.2999977v33.866664h-51.2999977z" fill="none" stop-color="#000000" stroke="#000000" stroke-linejoin="round" stroke-width="1.058333" />
    </g>
<g display="inline" opacity="1">
        <path clip-rule="nonzero" color-interpolation="sRGB" color-interpolation-filters="linearRGB" color-rendering="auto" d="m33.8671820 19.1387800 -2.972427 2.972946.747758.747757 1.695503-1.694987v5.928836c-1.289556.24932-2.271694 1.389118-2.271694 2.748672 0 1.540454 1.260406 2.800861 2.80086 2.800861 1.540455 0 2.800863-1.260407 2.800863-2.800861 0-1.359554-.982138-2.499352-2.271696-2.748672v-5.928836l1.695505 1.694987.747758-.747757zm0 8.96121c.968492 0 1.742014.773523 1.742014 1.742014 0 .968489-.773522 1.742527-1.742014 1.742527-.968491 0-1.742011-.774038-1.742011-1.742527 0-.968491.77352-1.742014 1.742011-1.742014z" display="inline" fill="#000000" fill-opacity="1" fill-rule="nonzero" image-rendering="auto" opacity="1" shape-rendering="auto" stop-color="#000000" stop-opacity="1" text-rendering="auto" visibility="visible" />
        <path d="m27.1523320 32.6428650 h13.42867c3.214516 0 5.802375 2.58786 5.802375 5.802376 0 3.214514-2.587859 5.802375-5.802375 5.802375h-13.42867c-3.214516 0-5.802375-2.587861-5.802375-5.802375 0-3.214516 2.587859-5.802376 5.802375-5.802376z" display="inline" fill="none" opacity="1" stop-color="#000000" stroke="#000000" stroke-width="1.05833" />
    </g>
</svg>