<?xml version='1.0' encoding='utf8'?>
<svg xmlns="http://www.w3.org/2000/svg" height="135" viewBox="7.1583329875 15.8749996875 53.416664325 35.983330625" width="201">
    <g display="inline">
        <path d="m8.2166663 16.933333h51.2999977v33.866664h-51.2999977z" fill="#80dfff" stop-color="#000000" />
        <path d="m8.2166663 16.933333h51.2999977v33.866664h-51.2999977z" fill="none" stop-color="#000000" stroke="#000000" stroke-linejoin="round" stroke-width="1.058333" />
    </g>
<g display="inline" opacity="1">
        <path d="m47.5827020 27.0419690 a1.8953202 1.8953202 0 0 1 -1.89532 1.89532 1.8953202 1.8953202 0 0 1 -1.89532-1.89532 1.8953202 1.8953202 0 0 1 1.89532-1.89532 1.8953202 1.8953202 0 0 1 1.89532 1.89532" fill="#000000" stop-color="#000000" stroke-width="1.05833" />
        <path d="m45.6873830 40.6913600 -7.979099-.170813-3.84162 6.995507-3.84162-6.995507-7.979099.170812 4.137478-6.824696-4.137478-6.824694 7.979099.170813 3.84162-6.995508 3.841621 6.995508 7.979098-.170813-4.137478 6.824695z" fill="#000000" stop-color="#000000" stroke-width="1.05833" />
        <path d="m35.7619840 20.2172740 a1.8953202 1.8953202 0 0 1 -1.89532 1.89532 1.8953202 1.8953202 0 0 1 -1.89532-1.89532 1.8953202 1.8953202 0 0 1 1.89532-1.89532 1.8953202 1.8953202 0 0 1 1.89532 1.89532" fill="#000000" stop-color="#000000" stroke-width="1.05833" />
        <path d="m23.9412650 27.0419690 a1.8953202 1.8953202 0 0 1 -1.89532 1.89532 1.8953202 1.8953202 0 0 1 -1.89532-1.89532 1.8953202 1.8953202 0 0 1 1.89532-1.89532 1.8953202 1.8953202 0 0 1 1.89532 1.89532" fill="#000000" stop-color="#000000" stroke-width="1.05833" />
        <path d="m23.9412650 40.6913590 a1.8953202 1.8953202 0 0 1 -1.89532 1.89532 1.8953202 1.8953202 0 0 1 -1.89532-1.89532 1.8953202 1.8953202 0 0 1 1.89532-1.89532 1.8953202 1.8953202 0 0 1 1.89532 1.89532" fill="#000000" stop-color="#000000" stroke-width="1.05833" />
        <path d="m47.5827030 40.6913600 a1.8953202 1.8953202 0 0 1 -1.89532 1.89532 1.8953202 1.8953202 0 0 1 -1.89532-1.89532 1.8953202 1.8953202 0 0 1 1.89532-1.89532 1.8953202 1.8953202 0 0 1 1.89532 1.89532" fill="#000000" stop-color="#000000" stroke-width="1.05833" />
        <path d="m35.7619840 47.5160540 a1.8953202 1.8953202 0 0 1 -1.89532 1.89532 1.8953202 1.8953202 0 0 1 -1.89532-1.89532 1.8953202 1.8953202 0 0 1 1.89532-1.89532 1.8953202 1.8953202 0 0 1 1.89532 1.89532" fill="#000000" stop-color="#000000" stroke-width="1.05833" />
    </g>
</svg>