<?xml version='1.0' encoding='utf8'?>
<svg xmlns="http://www.w3.org/2000/svg" height="181" viewBox="7.1583329875 3.9556536875 53.416666325 47.902678625" width="201">
    <g display="inline">
        <path d="m8.2166663 16.933333h51.2999977v33.866664h-51.2999977z" fill="#80dfff" stop-color="#000000" />
        <path d="m8.2166663 16.933333h51.2999977v33.866664h-51.2999977z" fill="none" stop-color="#000000" stroke="#000000" stroke-linejoin="round" stroke-width="1.05833" />
    </g>
<path d="m59.5166660 50.7999990 s-7.130233-16.933332-25.65-16.933332-25.6499995 16.933332-25.6499995 16.933332" display="inline" fill="none" opacity="1" stop-color="#000000" stroke="#000000" stroke-width="1.05833" />
<path d="m30.8437220 33.6020820 v-9.46539c0-1.669526 1.353418-3.022944 3.022944-3.022944s3.022943 1.353418 3.022943 3.022944v9.46539" display="inline" fill="none" opacity="1" stop-color="#000000" stroke="#000000" stroke-width="1.05833" />
<g display="inline" opacity="1" stroke-width=".333333">
        <path d="m39.2971710 10.4444940 a5.4305073 5.4305073 0 0 1 -5.430507 5.430507 5.4305073 5.4305073 0 0 1 -5.430507-5.430507 5.4305073 5.4305073 0 0 1 5.430507-5.430507 5.4305073 5.4305073 0 0 1 5.430507 5.430507" fill="#000000" fill-opacity="1" stop-color="#000000" />
        <path d="m54.9206880 10.4444940 a5.4305073 5.4305073 0 0 1 -5.430507 5.430507 5.4305073 5.4305073 0 0 1 -5.430507-5.430507 5.4305073 5.4305073 0 0 1 5.430507-5.430507 5.4305073 5.4305073 0 0 1 5.430507 5.430507" fill="#000000" fill-opacity="1" stop-color="#000000" />
        <path d="m23.6736540 10.4444940 a5.4305073 5.4305073 0 0 1 -5.430507 5.430507 5.4305073 5.4305073 0 0 1 -5.430507-5.430507 5.4305073 5.4305073 0 0 1 5.430507-5.430507 5.4305073 5.4305073 0 0 1 5.430507 5.430507" fill="#000000" fill-opacity="1" stop-color="#000000" />
    </g>
</svg>