<?xml version='1.0' encoding='utf8'?>
<svg xmlns="http://www.w3.org/2000/svg" height="181" viewBox="7.1583329875 3.9556512875000003 53.416664325 47.902679025000005" width="201">
    <g display="inline">
        <path d="m8.2166663 16.933333h51.2999977v33.866664h-51.2999977z" fill="#80dfff" stop-color="#000000" />
        <path d="m8.2166663 16.933333h51.2999977v33.866664h-51.2999977z" fill="none" stop-color="#000000" stroke="#000000" stroke-linejoin="round" stroke-width="1.05833" />
    </g>
<g display="inline" opacity="1">
        <path d="m27.1523320 28.0642850 h13.42867c3.214516 0 5.802375 2.58786 5.802375 5.802376 0 3.214515-2.587859 5.802375-5.802375 5.802375h-13.42867c-3.214516 0-5.802375-2.58786-5.802375-5.802375 0-3.214516 2.587859-5.802376 5.802375-5.802376z" display="inline" fill="none" opacity="1" stop-color="#000000" stroke="#000000" stroke-width="1.05833" />
        <path d="m27.1523320 28.0642850  13.487665 11.604751" fill="none" stop-color="#000000" stroke="#000000" stroke-width="1.05833" />
        <path d="m40.6399970 28.0642850 -13.487665 11.604751" fill="none" stop-color="#000000" stroke="#000000" stroke-width="1.05833" />
    </g>
<path d="m39.2971710 10.4444940 a5.4305073 5.4305073 0 0 1 -5.430507 5.430507 5.4305073 5.4305073 0 0 1 -5.430507-5.430507 5.4305073 5.4305073 0 0 1 5.430507-5.4305094 5.4305073 5.4305073 0 0 1 5.430507 5.4305094" display="inline" fill="#000000" fill-opacity="1" opacity="1" stop-color="#000000" />
</svg>